<?xml version="1.0" encoding="UTF-8"?>
<svg id="Layer_2" data-name="Layer 2" xmlns="http://www.w3.org/2000/svg" viewBox="0 0 222.14 39.99">
  <defs>
    <style>
      .cls-1 {
        fill: #231f20;
      }
    </style>
  </defs>
  <g id="Layer_1-2" data-name="Layer 1">
    <g>
      <path class="cls-1" d="m10.45,39.47H0v-.21c.16-.68,1.35-4.42,1.35-7.9V10.14C1.35,6.66.16,2.91,0,2.24v-.21h10.45v.21c-.1.68-1.3,4.42-1.3,7.9v21.22c0,3.48,1.2,7.23,1.3,7.9v.21Zm9.05-6.24l-9.52-12.53c-.1-.16-.16-.26.1-.42l1.77-1.66,8.22-7.85c3.74-3.48,3.17-7.59,2.91-8.58v-.31h10.14v.26c-1.72,1.2-3.54,2.86-5.77,4.89l-10.71,10.14,12.43,16.17c2.03,2.7,4.84,5.62,5.15,5.93v.21h-12.06c-.36-.42-.83-3.59-2.65-6.24Z"/>
      <path class="cls-1" d="m34.68,31.77c0-5.62,5.62-8.94,12.01-8.32,1.3.1,2.81.36,4,.78v-3.12c0-3.74-.99-5.88-2.86-5.88-3.12,0-10.3,5.77-10.97,6.71h-.26v-7.02c4.47-1.3,8.84-1.92,11.65-1.92,6.81,0,9.78,3.54,9.78,8.58v10.97c0,2.91.94,4.16,3.33,3.12l.1.16c-.47,2.29-2.29,4-5.2,4-2.76,0-4.63-1.46-5.3-4.06-1.35,2.03-3.95,4.16-7.9,4.16-5.51,0-8.37-4.16-8.37-8.16Zm12.38,4.16c1.35,0,2.6-.62,3.64-1.72v-8.42c-.31,0-.68,0-1.04-.05-4.89-.62-7.33,1.87-7.33,4.99s1.92,5.2,4.73,5.2Z"/>
      <path class="cls-1" d="m63.8,4.63c0-2.6,2.08-4.63,4.68-4.63s4.68,2.03,4.68,4.63-2.18,4.58-4.68,4.58-4.68-2.03-4.68-4.58Zm9.98,34.84h-9.98v-.21c.16-.68,1.35-4.42,1.35-7.9v-9.93c0-3.48-1.2-7.23-1.35-7.96v-.16h8.63v18.04c0,3.48,1.2,7.23,1.35,7.9v.21Z"/>
      <path class="cls-1" d="m87.15,39.47h-9.98v-.21c.1-.68,1.3-4.42,1.3-7.9V9.67c0-3.48-1.2-7.07-1.46-7.75l-.05-.21,1.35-.21,7.54-.88v30.73c0,3.48,1.2,7.23,1.3,7.9v.21Z"/>
      <path class="cls-1" d="m89.28,31.77c0-5.62,5.62-8.94,12.01-8.32,1.3.1,2.81.36,4,.78v-3.12c0-3.74-.99-5.88-2.86-5.88-3.12,0-10.3,5.77-10.97,6.71h-.26v-7.02c4.47-1.3,8.84-1.92,11.65-1.92,6.81,0,9.78,3.54,9.78,8.58v10.97c0,2.91.94,4.16,3.33,3.12l.1.16c-.47,2.29-2.29,4-5.2,4-2.76,0-4.63-1.46-5.3-4.06-1.35,2.03-3.95,4.16-7.9,4.16-5.51,0-8.37-4.16-8.37-8.16Zm12.38,4.16c1.35,0,2.6-.62,3.64-1.72v-8.42c-.31,0-.68,0-1.04-.05-4.89-.62-7.33,1.87-7.33,4.99s1.92,5.2,4.73,5.2Z"/>
      <path class="cls-1" d="m140.35,39.47h-10.45v-.21c.16-.68,1.35-4.42,1.35-7.9V10.14c0-3.48-1.2-7.23-1.35-7.9v-.21h10.45v.21c-.1.68-1.3,4.42-1.3,7.9v9.36h14.67v-9.36c0-3.48-1.2-7.23-1.35-7.9v-.21h10.5v.21c-.16.68-1.35,4.42-1.35,7.9v21.22c0,3.48,1.2,7.23,1.35,7.9v.21h-10.5v-.21c.16-.68,1.35-4.42,1.35-7.9v-9.52h-14.67v9.52c0,3.48,1.2,7.23,1.3,7.9v.21Z"/>
      <path class="cls-1" d="m165.82,26.31c0-8.94,6.24-13.31,13.52-13.31s13.57,4.42,13.57,13.31-6.34,13.68-13.57,13.68-13.52-4.68-13.52-13.68Zm18.88,0c0-5.67-1.56-11.28-5.36-11.28s-5.3,5.67-5.3,11.28,1.46,11.6,5.3,11.6,5.36-5.88,5.36-11.6Z"/>
      <path class="cls-1" d="m196.82,31.15v-9.72c0-3.48-1.2-7.23-1.35-7.96v-.16h8.68v16.85c0,3.69,2.08,5.04,4.52,5.04,1.66,0,3.33-.62,4.89-1.66-.05-.52-.1-1.09-.1-1.61v-10.5c0-3.48-1.2-7.23-1.3-7.96v-.16h8.63v18.04c0,3.48,1.2,7.23,1.35,7.9v.21h-7.02c-.42-.99-1.04-2.7-1.35-4.58-1.92,2.96-4.52,5.04-8.42,5.04-4.58,0-8.53-2.81-8.53-8.79Z"/>
    </g>
  </g>
</svg>