<svg width="89" height="17" viewBox="0 0 89 17" fill="none" xmlns="http://www.w3.org/2000/svg">
<path d="M9.786 16C9.639 15.832 9.45 14.551 8.715 13.48L4.872 8.419C4.83 8.356 4.809 8.314 4.914 8.251L5.628 7.579L8.946 4.408C10.458 3.001 10.227 1.342 10.122 0.943V0.816999H14.217V0.921999C13.524 1.405 12.789 2.077 11.886 2.896L7.56 6.991L12.579 13.522C13.398 14.614 14.532 15.79 14.658 15.916V16H9.786ZM5.061 15.916V16H0.84V15.916C0.903 15.643 1.386 14.131 1.386 12.724V4.156C1.386 2.749 0.903 1.237 0.84 0.964V0.879999H5.061V0.964C5.019 1.237 4.536 2.749 4.536 4.156V12.724C4.536 14.131 5.019 15.643 5.061 15.916ZM18.2214 16.189C15.9954 16.189 14.8404 14.509 14.8404 12.892C14.8404 10.624 17.1084 9.28 19.6914 9.532C20.2164 9.574 20.8254 9.679 21.3084 9.847V8.587C21.3084 7.075 20.9094 6.214 20.1534 6.214C18.8934 6.214 15.9954 8.545 15.7224 8.923H15.6174V6.088C17.4234 5.563 19.1874 5.311 20.3214 5.311C23.0724 5.311 24.2694 6.739 24.2694 8.776V13.207C24.2694 14.383 24.6474 14.887 25.6134 14.467L25.6554 14.53C25.4664 15.454 24.7314 16.147 23.5554 16.147C22.4424 16.147 21.6864 15.559 21.4134 14.509C20.8674 15.328 19.8174 16.189 18.2214 16.189ZM17.9274 12.472C17.9274 13.69 18.7044 14.572 19.8384 14.572C20.3844 14.572 20.8884 14.32 21.3084 13.879C21.3084 13.795 21.3084 13.711 21.3084 13.627V10.477C21.1824 10.477 21.0354 10.477 20.8884 10.456C18.9144 10.204 17.9274 11.212 17.9274 12.472ZM30.4828 15.916V16H26.4508V15.916C26.4928 15.643 26.9758 14.131 26.9758 12.724V3.967C26.9758 2.56 26.4928 1.111 26.3878 0.837999L26.3668 0.754L26.9128 0.67L29.9578 0.312999V12.724C29.9578 14.131 30.4408 15.643 30.4828 15.916ZM34.7302 16.189C32.5042 16.189 31.3492 14.509 31.3492 12.892C31.3492 10.624 33.6172 9.28 36.2002 9.532C36.7252 9.574 37.3342 9.679 37.8172 9.847V8.587C37.8172 7.075 37.4182 6.214 36.6622 6.214C35.4022 6.214 32.5042 8.545 32.2312 8.923H32.1262V6.088C33.9322 5.563 35.6962 5.311 36.8302 5.311C39.5812 5.311 40.7782 6.739 40.7782 8.776V13.207C40.7782 14.383 41.1562 14.887 42.1222 14.467L42.1642 14.53C41.9752 15.454 41.2402 16.147 40.0642 16.147C38.9512 16.147 38.1952 15.559 37.9222 14.509C37.3762 15.328 36.3262 16.189 34.7302 16.189ZM34.4362 12.472C34.4362 13.69 35.2132 14.572 36.3472 14.572C36.8932 14.572 37.3972 14.32 37.8172 13.879C37.8172 13.795 37.8172 13.711 37.8172 13.627V10.477C37.6912 10.477 37.5442 10.477 37.3972 10.456C35.4232 10.204 34.4362 11.212 34.4362 12.472ZM47.0966 15.916V16H43.0436V15.916C43.1066 15.643 43.5896 14.131 43.5896 12.724V3.967C43.5896 2.56 43.0856 1.111 42.9806 0.837999L42.9596 0.754L43.5056 0.67L46.5506 0.312999V12.724C46.5506 14.131 47.0336 15.643 47.0966 15.916ZM50.3516 16L46.8866 10.435L46.8656 10.414L49.1756 8.335C50.4776 7.201 50.0156 5.899 49.8686 5.521V5.437H53.7116V5.521L49.4696 9.238L53.8376 15.916V16H50.3516ZM57.7605 16.189C55.5345 16.189 54.3795 14.509 54.3795 12.892C54.3795 10.624 56.6475 9.28 59.2305 9.532C59.7555 9.574 60.3645 9.679 60.8475 9.847V8.587C60.8475 7.075 60.4485 6.214 59.6925 6.214C58.4325 6.214 55.5345 8.545 55.2615 8.923H55.1565V6.088C56.9625 5.563 58.7265 5.311 59.8605 5.311C62.6115 5.311 63.8085 6.739 63.8085 8.776V13.207C63.8085 14.383 64.1865 14.887 65.1525 14.467L65.1945 14.53C65.0055 15.454 64.2705 16.147 63.0945 16.147C61.9815 16.147 61.2255 15.559 60.9525 14.509C60.4065 15.328 59.3565 16.189 57.7605 16.189ZM57.4665 12.472C57.4665 13.69 58.2435 14.572 59.3775 14.572C59.9235 14.572 60.4275 14.32 60.8475 13.879C60.8475 13.795 60.8475 13.711 60.8475 13.627V10.477C60.7215 10.477 60.5745 10.477 60.4275 10.456C58.4535 10.204 57.4665 11.212 57.4665 12.472ZM69.6693 16.189C67.8213 16.189 66.2253 15.055 66.2253 12.64V8.713C66.2253 7.306 65.7423 5.794 65.6793 5.5V5.437H69.1863V12.241C69.1863 13.732 70.0263 14.278 71.0133 14.278C71.6853 14.278 72.3573 14.026 72.9873 13.606C72.9663 13.396 72.9453 13.165 72.9453 12.955V8.713C72.9453 7.306 72.4623 5.794 72.4203 5.5V5.437H75.9063V12.724C75.9063 14.131 76.3893 15.643 76.4523 15.916V16H73.6173C73.4493 15.601 73.1973 14.908 73.0713 14.152C72.2943 15.349 71.2443 16.189 69.6693 16.189ZM80.9343 16.189C78.7083 16.189 77.5533 14.509 77.5533 12.892C77.5533 10.624 79.8213 9.28 82.4043 9.532C82.9293 9.574 83.5383 9.679 84.0213 9.847V8.587C84.0213 7.075 83.6223 6.214 82.8663 6.214C81.6063 6.214 78.7083 8.545 78.4353 8.923H78.3303V6.088C80.1363 5.563 81.9003 5.311 83.0343 5.311C85.7853 5.311 86.9823 6.739 86.9823 8.776V13.207C86.9823 14.383 87.3603 14.887 88.3263 14.467L88.3683 14.53C88.1793 15.454 87.4443 16.147 86.2683 16.147C85.1553 16.147 84.3993 15.559 84.1263 14.509C83.5803 15.328 82.5303 16.189 80.9343 16.189ZM80.6403 12.472C80.6403 13.69 81.4173 14.572 82.5513 14.572C83.0973 14.572 83.6013 14.32 84.0213 13.879C84.0213 13.795 84.0213 13.711 84.0213 13.627V10.477C83.8953 10.477 83.7483 10.477 83.6013 10.456C81.6273 10.204 80.6403 11.212 80.6403 12.472Z" fill="#5D7275"/>
</svg>
